HIERARCHY
ROOT Hips
{
	OFFSET -0.001795 -0.223333 0.028219
	CHANNELS 6 Xposition Yposition Zposition Zrotation Yrotation Xrotation 
	JOINT LeftUpLeg
	{
		OFFSET 0.069520 -0.091406 -0.006815
		CHANNELS 3 Zrotation Yrotation Xrotation
		JOINT LeftLeg
		{
			OFFSET 0.034277 -0.375199 -0.004496
			CHANNELS 3 Zrotation Yrotation Xrotation
			JOINT LeftFoot
			{
				OFFSET -0.013596 -0.397961 -0.043693
				CHANNELS 3 Zrotation Yrotation Xrotation
				JOINT LeftToe
				{
					OFFSET 0.026358 -0.055791 0.119288
					CHANNELS 3 Zrotation Yrotation Xrotation
					End Site
					{
						OFFSET 0.000000 0.000000 0.000000
					}
				}
			}
		}
	}
	JOINT RightUpLeg
	{
		OFFSET -0.067670 -0.090522 -0.004320
		CHANNELS 3 Zrotation Yrotation Xrotation
		JOINT RightLeg
		{
			OFFSET -0.038290 -0.382569 -0.008850
			CHANNELS 3 Zrotation Yrotation Xrotation
			JOINT RightFoot
			{
				OFFSET 0.015774 -0.398415 -0.042312
				CHANNELS 3 Zrotation Yrotation Xrotation
				JOINT RightToe
				{
					OFFSET -0.025372 -0.048144 0.123348
					CHANNELS 3 Zrotation Yrotation Xrotation
					End Site
					{
						OFFSET 0.000000 0.000000 0.000000
					}
				}
			}
		}
	}
	JOINT Spine
	{
		OFFSET -0.002533 0.108963 -0.026696
		CHANNELS 3 Zrotation Yrotation Xrotation
		JOINT Spine1
		{
			OFFSET 0.005487 0.135180 0.001092
			CHANNELS 3 Zrotation Yrotation Xrotation
			JOINT Spine2
			{
				OFFSET 0.001457 0.052922 0.025425
				CHANNELS 3 Zrotation Yrotation Xrotation
				JOINT Neck
				{
					OFFSET -0.002778 0.213870 -0.042857
					CHANNELS 3 Zrotation Yrotation Xrotation
					JOINT Head
					{
						OFFSET 0.005152 0.064970 0.051349
						CHANNELS 3 Zrotation Yrotation Xrotation
						End Site
						{
							OFFSET 0.000000 0.000000 0.000000
						}
					}
				}
				JOINT LeftShoulder
				{
					OFFSET 0.078845 0.121749 -0.034090
					CHANNELS 3 Zrotation Yrotation Xrotation
					JOINT LeftArm
					{
						OFFSET 0.090977 0.030469 -0.008868
						CHANNELS 3 Zrotation Yrotation Xrotation
						JOINT LeftForeArm
						{
							OFFSET 0.259612 -0.012772 -0.027456
							CHANNELS 3 Zrotation Yrotation Xrotation
							JOINT LeftHand
							{
								OFFSET 0.249234 0.008986 -0.001171
								CHANNELS 3 Zrotation Yrotation Xrotation
								End Site
								{
									OFFSET 0.000000 0.000000 0.000000
								}
							}
						}
					}
				}
				JOINT RightShoulder
				{
					OFFSET -0.081759 0.118833 -0.038615
					CHANNELS 3 Zrotation Yrotation Xrotation
					JOINT RightArm
					{
						OFFSET -0.096012 0.032551 -0.009143
						CHANNELS 3 Zrotation Yrotation Xrotation
						JOINT RightForeArm
						{
							OFFSET -0.253742 -0.013329 -0.021401
							CHANNELS 3 Zrotation Yrotation Xrotation
							JOINT RightHand
							{
								OFFSET -0.255298 0.007772 -0.005559
								CHANNELS 3 Zrotation Yrotation Xrotation
								End Site
								{
									OFFSET 0.000000 0.000000 0.000000
								}
							}
						}
					}
				}
			}
		}
	}
}
MOTION
Frames: 10
Frame Time: 0.050000
0.000000 0.941806 0.000000 -1.325654 -1.388738 17.146775 5.224049 -1.266198 -24.961939 -2.116607 0.085228 12.565713 4.025418 9.796559 5.059162 0.000000 0.000000 0.000000 -4.562533 1.911019 -25.500870 1.523723 0.258477 14.429531 -3.109207 -9.471247 4.555420 0.000000 0.000000 0.000000 3.884156 -1.374959 14.805193 -1.647763 0.758383 -2.339361 -0.937434 3.550034 9.026889 4.570133 -0.105387 -26.938673 0.000000 0.000000 0.000000 -15.123203 -26.125957 11.714540 -52.935666 -48.183751 16.298108 11.717123 -11.969267 -0.674262 0.000000 0.000000 0.000000 13.912365 21.835777 10.746353 55.452354 44.271743 16.256304 -13.683228 9.527390 -0.426679 0.000000 0.000000 0.000000 
-0.000316 0.941516 -0.000700 -1.550106 -0.694817 17.727694 5.543867 -1.287758 -25.814040 -1.635217 -0.042965 12.993354 2.732165 7.092586 3.952689 0.000000 0.000000 0.000000 -4.661533 1.899034 -26.038233 2.530635 -0.006965 13.506193 -3.083033 -9.349181 4.458366 0.000000 0.000000 0.000000 4.191952 -1.487764 15.071180 -0.803642 0.416570 -3.388517 -1.111142 4.014020 10.062819 4.304150 0.310799 -28.890922 0.000000 0.000000 0.000000 -15.139318 -25.571790 11.247926 -52.976534 -49.633981 16.985685 11.756715 -9.270488 -0.505714 0.000000 0.000000 0.000000 11.868820 21.046501 10.174262 57.592026 46.136893 18.325930 -14.562305 9.676841 -0.467566 0.000000 0.000000 0.000000 
-0.000757 0.942131 -0.001383 -1.828733 -0.480700 17.450112 5.820715 -1.247572 -25.771267 -1.513710 -0.078801 13.231139 2.899290 7.434911 3.973289 0.000000 0.000000 0.000000 -4.274283 1.966329 -26.305672 2.282647 0.059587 14.408898 -2.585235 -8.397222 5.173153 0.000000 0.000000 0.000000 4.931260 -1.665640 15.320173 -2.014794 0.913991 -3.283909 -0.775037 3.966651 9.617831 4.423091 -0.013229 -26.266820 0.000000 0.000000 0.000000 -16.270945 -24.870743 11.022221 -50.152853 -50.910624 16.500759 9.534101 -6.060968 -0.202042 0.000000 0.000000 0.000000 13.138561 20.866203 10.305226 55.684844 46.079843 17.432630 -14.018163 8.935486 -0.381532 0.000000 0.000000 0.000000 
-0.001324 0.942707 -0.001851 -1.661360 0.751656 18.214591 5.662094 -1.397722 -26.646814 -1.185477 -0.178275 13.016373 2.372247 6.372230 3.609658 0.000000 0.000000 0.000000 -4.152027 1.982930 -27.390720 1.868579 0.118832 14.467285 -2.757267 -8.665858 5.033937 0.000000 0.000000 0.000000 5.330605 -1.738612 14.705199 -2.012685 0.914951 -3.202774 -0.571214 3.140961 9.865100 3.649188 0.532546 -28.397099 0.000000 0.000000 0.000000 -15.564981 -24.986488 11.086639 -50.471753 -52.698086 17.594087 9.734405 -4.087263 -0.114775 0.000000 0.000000 0.000000 10.159730 20.144237 9.342645 57.632157 47.636218 19.368178 -13.820481 9.234695 -0.405661 0.000000 0.000000 0.000000 
-0.001898 0.943852 -0.002066 -1.512663 1.169478 18.167868 5.587358 -1.432746 -26.451813 -1.138626 -0.185029 12.431677 2.461394 6.908397 4.715976 0.000000 0.000000 0.000000 -4.129586 1.942479 -27.138257 1.724408 0.139358 14.483466 -2.477730 -8.067060 5.299586 0.000000 0.000000 0.000000 5.029878 -1.715979 15.039803 -1.464641 0.687188 -2.929292 -0.742657 2.744827 9.750934 3.403218 0.695495 -29.111635 0.000000 0.000000 0.000000 -15.637738 -24.795442 11.031390 -49.253572 -53.312269 17.370797 9.984669 -1.498277 0.009207 0.000000 0.000000 0.000000 9.723093 20.331054 9.320059 57.594268 48.287257 19.789631 -14.911098 8.792887 -0.415237 0.000000 0.000000 0.000000 
-0.002345 0.944442 -0.002097 -1.358369 1.807394 18.394843 5.381306 -1.517540 -26.520882 -1.237991 -0.168922 12.035722 2.174978 6.325732 4.492759 0.000000 0.000000 0.000000 -4.143612 1.895562 -27.076285 1.559759 0.153540 14.228440 -2.523233 -7.990587 4.818028 0.000000 0.000000 0.000000 5.150721 -1.759232 15.023870 -1.362610 0.650438 -3.218527 -0.577683 2.609414 10.006885 3.429840 0.698158 -29.101874 0.000000 0.000000 0.000000 -14.767051 -25.385858 11.197204 -47.646441 -53.572720 16.701699 10.196760 -0.203540 0.075466 0.000000 0.000000 0.000000 8.679706 20.050049 9.038007 58.303522 48.486573 20.308408 -15.427627 9.164610 -0.470831 0.000000 0.000000 0.000000 
-0.002468 0.944646 -0.002080 -1.317972 2.186391 18.225945 5.244759 -1.566652 -26.547862 -1.161200 -0.191846 11.977577 2.215940 6.650617 5.181724 0.000000 0.000000 0.000000 -4.120602 1.870070 -27.030809 1.358771 0.189777 14.295374 -2.443389 -7.741478 4.682436 0.000000 0.000000 0.000000 5.221756 -1.785395 15.077316 -1.229816 0.594688 -3.054704 -0.629776 2.198015 10.136595 3.678750 0.605877 -29.618279 0.000000 0.000000 0.000000 -14.038291 -24.967637 10.922433 -47.087034 -54.059995 16.662137 10.616146 1.384889 0.171337 0.000000 0.000000 0.000000 8.583216 19.758439 8.846637 58.883497 48.549034 20.593053 -16.416084 9.204908 -0.514568 0.000000 0.000000 0.000000 
-0.002395 0.944578 -0.002245 -1.176721 2.565635 18.004532 4.896156 -1.657105 -26.651065 -1.159652 -0.209913 12.267058 2.212478 6.595749 4.943123 0.000000 0.000000 0.000000 -4.114308 1.838554 -26.950320 1.154820 0.228011 14.393938 -2.510629 -7.711096 4.097099 0.000000 0.000000 0.000000 5.408505 -1.853924 15.328742 -1.031377 0.511013 -2.921860 -0.785639 1.917833 9.907014 3.599649 0.636143 -29.610943 0.000000 0.000000 0.000000 -13.429504 -25.234488 10.982883 -45.833109 -54.023877 16.059492 11.217763 1.677619 0.202142 0.000000 0.000000 0.000000 8.502367 19.622428 8.752826 59.387673 48.560568 20.859180 -17.039060 9.402076 -0.562741 0.000000 0.000000 0.000000 
-0.002337 0.944243 -0.002664 -1.195670 2.605315 17.632995 4.797431 -1.663851 -26.470382 -1.211878 -0.209785 12.600018 2.488404 7.086259 4.810898 0.000000 0.000000 0.000000 -4.107951 1.837546 -27.031756 1.110113 0.245974 14.814789 -2.637540 -7.991400 4.059314 0.000000 0.000000 0.000000 5.431503 -1.890649 15.719788 -0.910158 0.460212 -2.858724 -0.573929 2.035851 9.808562 3.398169 0.731013 -29.522147 0.000000 0.000000 0.000000 -12.549356 -25.459327 10.932424 -44.678140 -54.640797 15.790725 11.256475 2.672240 0.263487 0.000000 0.000000 0.000000 8.217725 19.715586 8.759435 59.461877 48.969139 21.191748 -17.250913 8.587241 -0.477483 0.000000 0.000000 0.000000 
-0.002428 0.943824 -0.003275 -1.126751 2.833914 17.252632 4.694104 -1.701247 -26.592169 -1.341194 -0.210823 13.398493 2.705590 7.487397 4.709534 0.000000 0.000000 0.000000 -4.090458 1.826085 -27.121072 0.916750 0.297540 15.390290 -2.744415 -8.141054 3.744777 0.000000 0.000000 0.000000 5.537655 -1.951872 16.123262 -0.758640 0.395464 -2.735011 -0.587333 1.820613 9.828202 3.175847 0.857528 -29.986871 0.000000 0.000000 0.000000 -11.699447 -25.733015 10.960910 -43.581942 -55.457108 15.636438 11.108081 3.287629 0.296416 0.000000 0.000000 0.000000 7.922434 19.738428 8.699132 59.588036 49.591380 21.649984 -17.405409 7.960667 -0.410853 0.000000 0.000000 0.000000 
